<?xml version="1.0" standalone="no"?>
<!DOCTYPE svg PUBLIC "-//W3C//DTD SVG 20010904//EN"
 "http://www.w3.org/TR/2001/REC-SVG-20010904/DTD/svg10.dtd">
<svg version="1.0" xmlns="http://www.w3.org/2000/svg"
 width="551.000000pt" height="551.000000pt" viewBox="0 0 551.000000 551.000000"
 preserveAspectRatio="xMidYMid meet">
<metadata>
Created by potrace 1.14, written by Peter Selinger 2001-2017
</metadata>
<g transform="translate(0.000000,551.000000) scale(0.100000,-0.100000)"
fill="#000000" stroke="none">
<path d="M1225 4824 c-224 -41 -391 -130 -546 -291 -68 -71 -148 -185 -176
-251 -8 -20 -21 -50 -28 -67 -19 -41 -42 -128 -54 -200 -11 -67 -21 -199 -36
-475 -3 -63 -8 -131 -10 -150 -3 -19 -7 -78 -10 -130 -7 -136 -14 -244 -20
-330 -19 -269 -29 -455 -29 -570 -1 -97 1 -110 30 -171 70 -148 205 -229 379
-229 137 1 359 41 460 84 284 121 502 304 659 551 21 33 46 71 56 85 29 44
149 292 154 320 1 3 12 33 25 68 l23 62 652 0 651 0 25 -67 c13 -38 25 -70 25
-73 2 -17 117 -253 144 -295 110 -177 170 -254 280 -362 99 -98 288 -233 326
-233 7 0 15 -4 17 -8 8 -21 241 -99 323 -108 28 -3 70 -10 95 -14 25 -5 92 -8
150 -6 81 2 118 7 162 25 127 50 236 198 240 326 2 56 -8 296 -17 410 -8 101
-22 321 -30 470 -3 61 -8 124 -10 140 -3 17 -7 80 -10 140 -3 61 -7 137 -9
170 -3 33 -7 110 -11 170 -3 61 -8 117 -10 125 -2 8 -6 41 -10 73 -26 241
-204 518 -424 661 -181 117 -330 161 -546 159 -179 0 -280 -25 -444 -108 l-70
-35 -848 1 -848 0 -65 34 c-72 37 -192 80 -273 96 -78 16 -262 18 -342 3z
m303 -394 c171 -46 307 -157 381 -313 45 -94 57 -144 60 -248 7 -261 -177
-503 -432 -571 -333 -88 -670 127 -732 467 -7 38 -7 162 -1 193 17 80 54 168
96 232 87 129 244 231 380 247 25 3 47 7 49 9 7 7 159 -5 199 -16z m2743 0
c56 -15 123 -46 179 -83 52 -34 160 -145 160 -164 0 -7 4 -13 8 -13 13 0 63
-121 78 -188 18 -76 11 -211 -15 -292 -55 -174 -198 -322 -365 -380 -31 -10
-56 -17 -56 -15 0 3 -12 0 -27 -6 -30 -11 -172 -14 -213 -4 -14 3 -36 8 -49
11 -87 18 -224 104 -292 183 -46 53 -109 163 -109 190 0 9 -5 22 -12 29 -7 7
-9 12 -6 12 3 0 0 24 -7 53 -34 150 28 371 137 487 87 92 207 162 317 185 67
14 212 11 272 -5z"/>
<path d="M1236 4155 c1 -102 -2 -145 -10 -146 -6 0 -72 -1 -146 -2 l-135 -2 0
-145 0 -145 146 0 146 0 1 -130 c0 -71 1 -138 1 -147 1 -16 15 -18 146 -18
l145 0 0 148 0 148 138 -1 c75 -1 142 0 147 2 7 2 10 57 10 146 l0 142 -145 1
-145 1 -3 146 -3 147 -147 0 -147 0 1 -145z"/>
<path d="M3845 4234 c-126 -69 -151 -219 -52 -315 97 -93 255 -63 309 59 39
88 10 189 -71 242 -47 31 -142 38 -186 14z"/>
<path d="M4255 3853 c-30 -8 -94 -61 -110 -93 -8 -15 -17 -48 -20 -74 -12 -86
51 -180 137 -204 137 -38 259 67 246 209 -12 118 -128 193 -253 162z"/>
</g>
</svg>
